<?xml version="1.0" encoding="UTF-8"?>
<svg xmlns="http://www.w3.org/2000/svg" xmlns:xlink="http://www.w3.org/1999/xlink" width="30pt" height="30.000001pt" viewBox="0 0 30 30.000001" version="1.2">
<defs>
<clipPath id="clip1">
  <path d="M 0.484375 0 L 28 0 L 28 27 L 0.484375 27 Z M 0.484375 0 "/>
</clipPath>
<clipPath id="clip2">
  <path d="M 0.484375 0 L 29.515625 0 L 29.515625 29 L 0.484375 29 Z M 0.484375 0 "/>
</clipPath>
<clipPath id="clip3">
  <path d="M 0.484375 0 L 29.515625 0 L 29.515625 29.03125 L 0.484375 29.03125 Z M 0.484375 0 "/>
</clipPath>
<clipPath id="clip4">
  <path d="M 6.542969 6.058594 L 23.238281 6.058594 L 23.238281 22.753906 L 6.542969 22.753906 Z M 6.542969 6.058594 "/>
</clipPath>
</defs>
<g id="surface1">
<g clip-path="url(#clip1)" clip-rule="nonzero">
<path style=" stroke:none;fill-rule:nonzero;fill:rgb(21.958923%,71.369934%,100%);fill-opacity:1;" d="M 27.160156 0.363281 L 27.167969 0.367188 L 27.167969 0.363281 Z M 0.847656 26.675781 L 0.847656 26.683594 L 0.851562 26.683594 Z M 0.847656 26.675781 "/>
</g>
<g clip-path="url(#clip2)" clip-rule="nonzero">
<path style=" stroke:none;fill-rule:nonzero;fill:rgb(79.60968%,93.328857%,94.509888%);fill-opacity:1;" d="M 29.152344 2.355469 L 29.152344 26.683594 L 27.160156 28.667969 L 2.839844 28.667969 L 0.851562 26.683594 L 0.847656 26.675781 L 0.847656 2.355469 L 2.839844 0.363281 L 27.160156 0.363281 L 27.167969 0.367188 Z M 29.152344 2.355469 "/>
</g>
<g clip-path="url(#clip3)" clip-rule="nonzero">
<path style=" stroke:none;fill-rule:nonzero;fill:rgb(14.898682%,19.60907%,21.958923%);fill-opacity:1;" d="M 25.632812 -0.0585938 L 4.367188 -0.0585938 C 2.207031 -0.0585938 0.425781 1.722656 0.425781 3.882812 L 0.425781 25.148438 C 0.425781 27.308594 2.207031 29.089844 4.367188 29.089844 L 25.632812 29.089844 C 27.792969 29.089844 29.574219 27.308594 29.574219 25.148438 L 29.574219 3.882812 C 29.574219 1.722656 27.792969 -0.0585938 25.632812 -0.0585938 Z M 28.703125 4.179688 L 28.703125 25.148438 C 28.703125 26.824219 27.308594 28.21875 25.632812 28.21875 L 4.367188 28.21875 C 2.691406 28.21875 1.296875 26.824219 1.296875 25.148438 L 1.296875 3.882812 C 1.296875 2.207031 2.691406 0.8125 4.367188 0.8125 L 25.632812 0.8125 C 27.308594 0.8125 28.703125 2.207031 28.703125 3.882812 Z M 28.703125 4.179688 "/>
</g>
<path style=" stroke:none;fill-rule:nonzero;fill:rgb(0%,29.019165%,67.83905%);fill-opacity:1;" d="M 20.25 12.523438 L 18.308594 10.582031 L 17.570312 11.320312 L 19.269531 13.015625 L 17.570312 14.710938 L 18.308594 15.449219 L 20.253906 13.507812 C 20.523438 13.234375 20.523438 12.792969 20.25 12.523438 Z M 20.25 12.523438 "/>
<path style=" stroke:none;fill-rule:nonzero;fill:rgb(0%,29.019165%,67.83905%);fill-opacity:1;" d="M 12.210938 11.320312 L 11.472656 10.582031 L 9.53125 12.523438 C 9.257812 12.796875 9.257812 13.238281 9.53125 13.507812 L 11.472656 15.449219 L 12.210938 14.714844 L 10.515625 13.015625 Z M 12.210938 11.320312 "/>
<path style=" stroke:none;fill-rule:nonzero;fill:rgb(0%,29.019165%,67.83905%);fill-opacity:1;" d="M 13.660156 16.144531 L 14.730469 16.144531 L 16.121094 9.886719 L 15.050781 9.886719 Z M 13.660156 16.144531 "/>
<g clip-path="url(#clip4)" clip-rule="nonzero">
<path style=" stroke:none;fill-rule:nonzero;fill:rgb(0.779724%,0.779724%,0.779724%);fill-opacity:1;" d="M 21.847656 6.058594 L 7.9375 6.058594 C 7.171875 6.058594 6.542969 6.6875 6.542969 7.453125 L 6.542969 18.582031 C 6.542969 19.34375 7.171875 19.972656 7.9375 19.972656 L 14.195312 19.972656 L 14.195312 21.363281 L 12.109375 21.363281 C 11.339844 21.363281 10.71875 21.984375 10.71875 22.753906 L 19.066406 22.753906 C 19.066406 21.984375 18.441406 21.363281 17.671875 21.363281 L 15.585938 21.363281 L 15.585938 19.972656 L 21.847656 19.972656 C 22.613281 19.972656 23.238281 19.34375 23.238281 18.582031 L 23.238281 7.453125 C 23.238281 6.6875 22.613281 6.058594 21.847656 6.058594 Z M 21.847656 18.582031 L 7.9375 18.582031 L 7.9375 7.453125 L 21.847656 7.453125 Z M 21.847656 18.582031 "/>
</g>
</g>
</svg>
