<?xml version="1.0" encoding="UTF-8"?>
<svg xmlns="http://www.w3.org/2000/svg" xmlns:xlink="http://www.w3.org/1999/xlink" width="30pt" height="30.000001pt" viewBox="0 0 30 30.000001" version="1.2">
<defs>
<clipPath id="clip1">
  <path d="M 0.484375 0 L 28 0 L 28 27 L 0.484375 27 Z M 0.484375 0 "/>
</clipPath>
<clipPath id="clip2">
  <path d="M 0.484375 0 L 29.515625 0 L 29.515625 29 L 0.484375 29 Z M 0.484375 0 "/>
</clipPath>
<clipPath id="clip3">
  <path d="M 0.484375 0 L 29.515625 0 L 29.515625 29.03125 L 0.484375 29.03125 Z M 0.484375 0 "/>
</clipPath>
<clipPath id="clip4">
  <path d="M 6.289062 10 L 12 10 L 12 19 L 6.289062 19 Z M 6.289062 10 "/>
</clipPath>
<clipPath id="clip5">
  <path d="M 18 10 L 23.710938 10 L 23.710938 19 L 18 19 Z M 18 10 "/>
</clipPath>
<clipPath id="clip6">
  <path d="M 12 7.308594 L 19 7.308594 L 19 21.824219 L 12 21.824219 Z M 12 7.308594 "/>
</clipPath>
</defs>
<g id="surface1">
<g clip-path="url(#clip1)" clip-rule="nonzero">
<path style=" stroke:none;fill-rule:nonzero;fill:rgb(21.958923%,71.369934%,100%);fill-opacity:1;" d="M 27.160156 0.363281 L 27.167969 0.367188 L 27.167969 0.363281 Z M 0.847656 26.675781 L 0.847656 26.683594 L 0.851562 26.683594 Z M 0.847656 26.675781 "/>
</g>
<g clip-path="url(#clip2)" clip-rule="nonzero">
<path style=" stroke:none;fill-rule:nonzero;fill:rgb(79.60968%,93.328857%,94.509888%);fill-opacity:1;" d="M 29.152344 2.355469 L 29.152344 26.683594 L 27.160156 28.667969 L 2.839844 28.667969 L 0.851562 26.683594 L 0.847656 26.675781 L 0.847656 2.355469 L 2.839844 0.363281 L 27.160156 0.363281 L 27.167969 0.367188 Z M 29.152344 2.355469 "/>
</g>
<g clip-path="url(#clip3)" clip-rule="nonzero">
<path style=" stroke:none;fill-rule:nonzero;fill:rgb(14.898682%,19.60907%,21.958923%);fill-opacity:1;" d="M 25.632812 -0.0585938 L 4.367188 -0.0585938 C 2.207031 -0.0585938 0.425781 1.722656 0.425781 3.882812 L 0.425781 25.148438 C 0.425781 27.308594 2.207031 29.089844 4.367188 29.089844 L 25.632812 29.089844 C 27.792969 29.089844 29.574219 27.308594 29.574219 25.148438 L 29.574219 3.882812 C 29.574219 1.722656 27.792969 -0.0585938 25.632812 -0.0585938 Z M 28.703125 4.179688 L 28.703125 25.148438 C 28.703125 26.824219 27.308594 28.21875 25.632812 28.21875 L 4.367188 28.21875 C 2.691406 28.21875 1.296875 26.824219 1.296875 25.148438 L 1.296875 3.882812 C 1.296875 2.207031 2.691406 0.8125 4.367188 0.8125 L 25.632812 0.8125 C 27.308594 0.8125 28.703125 2.207031 28.703125 3.882812 Z M 28.703125 4.179688 "/>
</g>
<g clip-path="url(#clip4)" clip-rule="nonzero">
<path style=" stroke:none;fill-rule:nonzero;fill:rgb(13.729858%,12.159729%,12.548828%);fill-opacity:1;" d="M 10.6875 18.867188 C 10.550781 18.867188 10.417969 18.816406 10.3125 18.710938 L 6.3125 14.652344 L 10.3125 10.597656 C 10.519531 10.386719 10.851562 10.386719 11.058594 10.597656 C 11.261719 10.804688 11.261719 11.140625 11.058594 11.351562 L 7.800781 14.652344 L 11.058594 17.957031 C 11.261719 18.167969 11.261719 18.503906 11.058594 18.710938 C 10.957031 18.816406 10.820312 18.867188 10.6875 18.867188 "/>
</g>
<g clip-path="url(#clip5)" clip-rule="nonzero">
<path style=" stroke:none;fill-rule:nonzero;fill:rgb(13.729858%,12.159729%,12.548828%);fill-opacity:1;" d="M 19.316406 18.867188 C 19.183594 18.867188 19.046875 18.816406 18.945312 18.710938 C 18.738281 18.503906 18.738281 18.167969 18.945312 17.957031 L 22.203125 14.652344 L 18.945312 11.351562 C 18.738281 11.140625 18.738281 10.804688 18.945312 10.597656 C 19.148438 10.386719 19.484375 10.386719 19.6875 10.597656 L 23.691406 14.652344 L 19.6875 18.710938 C 19.585938 18.816406 19.449219 18.867188 19.316406 18.867188 "/>
</g>
<g clip-path="url(#clip6)" clip-rule="nonzero">
<path style=" stroke:none;fill-rule:nonzero;fill:rgb(13.729858%,12.159729%,12.548828%);fill-opacity:1;" d="M 12.640625 21.929688 C 12.574219 21.929688 12.507812 21.917969 12.445312 21.890625 C 12.175781 21.78125 12.042969 21.46875 12.152344 21.195312 L 17.496094 7.714844 C 17.605469 7.441406 17.910156 7.308594 18.179688 7.417969 C 18.449219 7.527344 18.582031 7.839844 18.472656 8.113281 L 13.128906 21.59375 C 13.046875 21.800781 12.847656 21.929688 12.640625 21.929688 "/>
</g>
</g>
</svg>
